<?xml version="1.0" encoding="UTF-8"?>
<svg id="katman_1" data-name="katman 1" xmlns="http://www.w3.org/2000/svg" version="1.1" viewBox="0 0 744.6 873.4">
  <defs>
    <style>
      .cls-1 {
        fill: #7a480b;
      }

      .cls-1, .cls-2, .cls-3, .cls-4, .cls-5 {
        stroke-width: 0px;
      }

      .cls-2 {
        fill: #69b51e;
      }

      .cls-3 {
        fill: #4b2609;
      }

      .cls-4 {
        fill: #158410;
      }

      .cls-5 {
        fill: #b0c80f;
      }
    </style>
  </defs>
  <path class="cls-3" d="M409.6,781.9c40.3,2.9,80,9.9,118.7,21.4,27.6,8.2,54.4,18.7,79.5,33,17.8,10.2,34.5,21.9,48.3,37.1-8.8-4.8-17.3-9.7-26.5-13.7-32.3-14.3-68.7-21.2-103.9-22.6l-34.8-.2c-8.8-.2-17.8-1.2-26.6-2,21.2,16.5,44.4,24.3,70.7,28.1-6.9,1-13.6,1.3-20.5,1.6-23.3.9-45.8-1.7-65.1-15.9-6.6-4.9-12.8-11.2-18.1-17.5-.3-2.1-2.2-4.4-3.3-6.2-2.4-3.9-4.8-7.9-6.8-12.1-4.8-9.9-8.9-20.4-11.6-31.1Z"/>
  <path class="cls-3" d="M315.5,819.4c-2.5-.4-5.4.4-7.8.9-17.9,3.1-32.7,11.4-49.2,18.1-5.9,2.4-12,4.3-18.2,5.9-10,2.5-21,3.1-31.3,2.5-10.9-.7-21.8-2.5-32.6-2.6-5.8,0-11.6,1.3-17.3,2.5-24.6,5.2-47.5,15.4-69.9,26.6,5.7-5.4,11.1-10.9,17.3-15.7,15.9-12.3,33.8-22.4,52-30.9,54.6-25.8,115-38,175-42.3l2.9.5c-.5,5.4-8.1,27.5-12,30.5l-3.6,2.2c-.7.4-.4.2-1,.7,26.3-5.1,54.8-5.3,80.6,2.2,10.2,3,19.9,7.3,29.5,11.8l-8.5,6.3c-14,8.8-29,5.9-44.2,2.4,5.7,3.9,11.3,8.1,17.3,11.5,17.5,9.8,36.1,15.1,55.7,18.8-16,1.5-33.2,1.8-49.1-.6-11.1-1.6-24.5-6.2-31.3-15.8-1.9-2.7-3.5-6-2.8-9.3.8-3.3,4.4-4.9,7.1-6.4-4.4-2.6-11.6-2.2-16.6-1.7-17.5,1.8-33.9,8.3-49.2,16.7-8.4,4.6-16.6,9.7-25.6,13.1-10.8,4.1-21.6,5.9-33.1,6.2,13-3.1,23.2-10.7,30.9-21.6,5-7.1,9-14.1,15.4-20.2,5.8-5.5,12.5-8.6,19.4-12.3Z"/>
  <path class="cls-5" d="M417,0l.5.4c-3.2,7.6-6.2,15.3-7.9,23.3-4.2,20.2-.9,39.2,7.6,57.8l14.4,29.3c11.2,24.7,16.6,53.8,12.1,80.7-4.2,25.6-16.1,49.7-33.5,68.9-9.8,10.8-21.3,20.2-33.1,28.7-4.6-18.1-8.3-36-8.4-54.8,0-24.9,7.9-52.2,22.9-72.2,3.3-4.4,7.1-8.3,11-12.2v-.4c-20.3,16.3-34.4,42.2-41.3,67.1-1.9-13-2.7-26.4-3.1-39.5-.7-24,.5-47.8,5.2-71.4,3.3-14.2,7.7-26.5,13.7-39.8l-.3-.4-1.3,2.2c-6.6,12.1-11.3,24.9-15.7,37.9-3.5,10.2-7,20.2-9.4,30.6-9.9,42.3-10.3,86.7-2.5,129.3,1.5,8,2.8,16.1,5.1,23.9-7.2-4.9-13.8-11.3-19.8-17.6-18.2-18.8-32.7-39.9-41.5-64.7-12.4-35.2-12.2-70.6,4.1-104.4,19.7-40.8,59.2-75.6,99.9-94.5,6.9-3.2,14.1-5.6,21.2-8.1Z"/>
  <path class="cls-2" d="M0,374.8c5.2,5.7,10.3,10.1,17.1,13.8,19.5,10.7,43.2,13.1,64.7,7.4,12-3.2,23.4-8,35.3-11.4,8.9-2.6,18.2-4.3,27.5-4.4,22.4-.4,46.4,7.8,65.8,18.6,27.8,15.5,45.4,41.7,55.7,71.2,2.9,8.3,5,17,7.4,25.5l-28.7-14.1c-16-6.9-33-11.6-49.9-15.8-11.8-19.9-31.9-37.8-54.1-44.8,3.6,2.9,9.5,5,13.6,7.4,15,8.7,26.5,20.8,34.6,36.2-19.6-5.2-40.9-6.6-61-8.1-13.8-1-27.7-1.8-41.2-5.1-19.3-4.8-36.5-14.2-51.7-26.8l-.4.2c4.7,5.1,10.3,9.3,16,13.3,10.4,6.8,21.1,12.6,32.8,16.7,14.4,5,29.4,6.9,44.4,9.2l43.7,8c6.6,1.4,13.3,2.4,19.8,4.3-6.9.9-13.8,1.3-20.6,2.8-16,3.3-33.7,11.2-46,22.1v.5c15.2-10.1,30.1-16.8,48.2-19.8,35.8-6,70.5,10.1,98.9,30.6-7.4,5.5-14.8,11.1-22.7,15.8-17,10.2-36.8,17.6-56.5,19.9-44.7,5.1-87.8-10.3-122.5-38.1-33.7-27-57.5-66.6-66.6-108.6-1.9-8.7-2.7-17.5-3.6-26.4Z"/>
  <path class="cls-4" d="M744.6,374.1c0,6.5-.9,13.6-1.9,20.1-4.7,30-18.9,58.5-37.5,82.2-27.4,34.9-67.9,61-112.5,66.3-32.4,3.8-62.7-3.8-91.4-18.6-9.3-4.8-19.1-10.4-27.3-16.9,7.8-6.3,17.1-11.3,26-15.9,7.8-4,15.8-8.1,23.9-11.4,8.2-3.3,16.8-5.7,25.3-8.1,3.2-.9,7.1-2.4,10.4-2.8,2.5-.3,6.5.9,9.1,1.3,24.9,3.8,44.7,17.6,63.4,33.6l.2-.4c-5.2-5.4-11-10.2-16.9-14.8-13.7-10.6-28.1-18.9-45.2-22.7,5.8-2.4,13.5-3.3,19.7-4.5,26.8-4.9,54.3-5.6,80.3-14.4,13.7-4.5,29-13.4,39.3-23.5-.9,0-.5-.2-1.2.3-12.6,9.8-26.7,16.4-42.1,20.6-19.3,5.3-40.1,5.8-59.9,7.3l-45.8,5.3c3.6-10.7,8.3-21.7,16.1-30,4.3-4.6,9.2-8,14.4-11.5-.7.1-1.4.3-2.1.6-3,1.4-5.9,3.6-8.5,5.6-12.2,9.5-19.4,22-24.5,36.3-10.5,1.8-20.8,4.9-30.9,8.1-17.8,5.6-35,12.2-51.9,20.1,4.7-28.2,14.9-55.7,35.3-76.3,7-7,14.6-13.6,23.2-18.6,33.9-19.8,72.8-18.2,109.2-7.4,10.7,3.2,21.1,8,32,10.6,6,1.4,12,1.9,18.2,1.8,20.8-.2,39-7.7,53.5-22.5Z"/>
  <path class="cls-2" d="M114.4,130c4.6,9.8,9.5,19.5,15.7,28.4,12.9,18.5,32,30.2,53.8,35.2,6.5,1.5,13.1,2.1,19.7,3.3,27,4.9,53.6,18.5,72.4,38.6,4.5,4.8,8.4,10.2,12.1,15.7,24.2,35.3,23.1,81.2,15.7,121.5l-11.3-14.9c-6.8-8.5-14.2-16.4-21.9-24l-17.4-16-7.4-6.2c-.7-.6-2.4-1.6-2.9-2.3-.8-1.1-.9-4.7-1.2-6.2l-3.5-15c-3.9-15.4-9-30.1-16.6-44.1l-.3.2c3,7,5.9,14,7.8,21.4,3.3,12.4,4.5,25,5.8,37.7-27.7-19.2-57.2-39.1-80-64.1-6.9-7.6-13.3-15.4-18.9-23.9l-6-9.6c-.8-1.3-1.6-3.1-2.7-4,.3,3,4,8.1,5.5,10.9,14.7,25.5,34.7,48.3,57.1,67.3,14.2,12.1,29.5,23.2,43.1,36.1-7.5-3.1-14.9-6.6-22.6-9.4-13-4.6-27.1-7.3-40.9-6.9,2.6.7,5.1.5,7.8.8,3.3.3,6.6.9,9.8,1.6,44.9,9.2,75,45,99,81.4-36.8,4.1-75.8-2.9-108.4-20.1-37-19.5-64.9-53.8-77.1-93.7-4.8-15.6-6.7-32.3-6.7-48.6,0-31.1,6.2-63.3,20.8-90.9Z"/>
  <path class="cls-1" d="M333.4,784.2c1.2,0,2.5,0,3.7-.5,4.4-11,5.9-25,7.3-36.8l4.4-52.6c1-20.1,1.2-40.3-1.6-60.3-4.1-28.6-14.1-56-30.3-80-13.3-19.6-30.4-36.3-48.9-50.9-7.1-5.6-15-9.8-22.2-15.1,2.9,1,5.6,2.6,8.5,3.8,6.6,2.7,13.1,5.1,19.4,8.4,32.4,17,60.8,43.7,80.2,74.6,0-3-.9-6.2-1.4-9.2l-2.8-17.7c-9.9-59.4-29.8-120.2-62.9-170.9-8.7-13.3-18.3-26.1-28.6-38.2-5.6-6.5-11.9-12.6-17.2-19.3,2.7,1.4,5.1,3.6,7.4,5.6l12,10.3c30.5,26.4,53,58.5,72.4,93.6l20.1,39.2,14.1,34.9c6.4-55.7,11.5-112.2,3-168l-16.4-80.6c-4.4-24.2-6.8-48.5-5.4-73.1.1-2.3-.2-7.1,1.1-9,.4,24.5,2.7,48.6,8.6,72.4l22.8,78.3c5.6,22.6,9.9,46.1,12.4,69.2l3,47c13-25.5,26.5-51,44.2-73.6,9.4-12,20.1-22.9,31.2-33.3,7.9-7.4,16.8-15.6,26-21.2l-10.5,10.4c-10,9.9-18.9,21.3-27,32.7-38,53.5-59.1,117.8-66,182.7-1.2,10.9-2.4,21.8-2.4,32.8,20.7-38.6,57.2-67.9,96.3-86.5,9.4-4.5,19.5-8.1,29.3-11.6-3.1,2.3-6.7,3.9-10,5.8l-15,9.3c-25.2,17-48.8,38.3-65.2,64-4.3,6.7-7.8,13.7-11.1,20.9-10.5,22.3-15.7,45.9-18.3,70.3-3.9,36.5-2.1,73.6,5,109.6,1.9,9.5,3.4,20.5,6.9,29.5l.2.5c2.8,10.7,6.9,21.1,11.6,31.1,2,4.2,4.4,8.1,6.8,12.1,1.1,1.8,2.9,4.1,3.3,6.2l-1.5,1c-9.6-4.5-19.3-8.8-29.5-11.8-25.9-7.5-54.4-7.3-80.6-2.2.7-.5.4-.3,1-.7l3.6-2.2c3.9-3.1,11.5-25.1,12-30.5l-2.9-.5Z"/>
  <path class="cls-2" d="M631,129.2c4.3,8,7.4,17,10.2,25.7,8.9,27.4,13.6,56.4,8.8,85.1-7.2,43.2-32.4,84.1-68.2,109.5-31.1,22-68,33.7-106.2,32-8.7-.4-17.1-1.8-25.6-3.3,10.7-19.3,26.3-38.4,43.4-52.3,17.6-14.3,42.4-23.7,65.1-24.9,8.1-.4,16.4.5,24.5,1.3-.5-.3-.6-.4-1.2-.6-2.9-.9-6.8-1.2-9.9-1.6-21.1-2.8-41.6.9-61.1,9.3,7.3-7.4,16-13.4,24.3-19.5,29.7-22.2,60.6-42.2,78.9-75.7,3.7-6.6,6.9-13.6,8.7-21-.8.7-1.4,2.5-1.8,3.5l-4.7,10.2c-3,5.9-6.8,11.4-10.8,16.6-15.7,20-36.7,34.5-58,47.8l-33.7,20.5c-1.4-19.6,2.2-35.4,11-52.8l-.3-.7c-8,12.8-13.2,27.2-13.8,42.4v8.7c0,1,.3,2.9.1,3.8-.2.9-6,4.1-7,4.8-4.5,2.8-9,5.7-13.2,8.9-12.9,10-23.9,21.4-34.7,33.6-7.9,9-15.4,17.7-22.3,27.5-6.4-30.3-8.9-59,2.2-88.6,15.6-41.6,50.7-70.3,92.4-83.1,18.7-5.7,37.4-8.7,55.3-16.9,13.8-6.4,27.6-16,36.5-28.4,4.8-6.7,8.2-14.1,11-21.8Z"/>
</svg>